<svg xmlns="http://www.w3.org/2000/svg" viewBox="0 0 64 64" fill="none" aria-hidden="true">
  <defs>
    <linearGradient id="mycelium-grad" x1="8" y1="8" x2="56" y2="56" gradientUnits="userSpaceOnUse">
      <stop stop-color="#5eead4" />
      <stop offset="1" stop-color="#2dd4bf" />
    </linearGradient>
    <filter id="mycelium-glow" x="-20%" y="-20%" width="140%" height="140%">
      <feGaussianBlur stdDeviation="1.5" result="blur" />
      <feMerge>
        <feMergeNode in="blur" />
        <feMergeNode in="SourceGraphic" />
      </feMerge>
    </filter>
  </defs>
  <g filter="url(#mycelium-glow)" stroke="url(#mycelium-grad)" stroke-width="1.75" stroke-linecap="round">
    <circle cx="32" cy="32" r="4" fill="#5eead4" stroke="none" />
    <line x1="32" y1="32" x2="32" y2="10" />
    <line x1="32" y1="32" x2="51" y2="21" />
    <line x1="32" y1="32" x2="51" y2="43" />
    <line x1="32" y1="32" x2="32" y2="54" />
    <line x1="32" y1="32" x2="13" y2="43" />
    <line x1="32" y1="32" x2="13" y2="21" />
    <line x1="32" y1="10" x2="38" y2="4" />
    <line x1="32" y1="10" x2="26" y2="4" />
    <line x1="51" y1="21" x2="58" y2="16" />
    <line x1="51" y1="21" x2="56" y2="28" />
    <line x1="51" y1="43" x2="56" y2="36" />
    <line x1="51" y1="43" x2="58" y2="48" />
    <line x1="32" y1="54" x2="26" y2="60" />
    <line x1="32" y1="54" x2="38" y2="60" />
    <line x1="13" y1="43" x2="6" y2="48" />
    <line x1="13" y1="43" x2="8" y2="36" />
    <line x1="13" y1="21" x2="8" y2="28" />
    <line x1="13" y1="21" x2="6" y2="16" />
  </g>
  <g fill="#5eead4">
    <circle cx="32" cy="10" r="2.5" />
    <circle cx="51" cy="21" r="2.5" />
    <circle cx="51" cy="43" r="2.5" />
    <circle cx="32" cy="54" r="2.5" />
    <circle cx="13" cy="43" r="2.5" />
    <circle cx="13" cy="21" r="2.5" />
    <circle cx="38" cy="4" r="1.75" />
    <circle cx="26" cy="4" r="1.75" />
    <circle cx="58" cy="16" r="1.75" />
    <circle cx="56" cy="28" r="1.75" />
    <circle cx="56" cy="36" r="1.75" />
    <circle cx="58" cy="48" r="1.75" />
    <circle cx="38" cy="60" r="1.75" />
    <circle cx="26" cy="60" r="1.75" />
    <circle cx="6" cy="48" r="1.75" />
    <circle cx="8" cy="36" r="1.75" />
    <circle cx="8" cy="28" r="1.75" />
    <circle cx="6" cy="16" r="1.75" />
  </g>
</svg>
